HIERARCHY
ROOT Hips
{
    OFFSET 0.000000 0.000000 0.000000
    CHANNELS 6 Xposition Yposition Zposition Zrotation Xrotation Yrotation
    JOINT Spine
    {
        OFFSET -0.000000 7.472806 0.000000
        CHANNELS 3 Zrotation Xrotation Yrotation
        JOINT Spine1
        {
            OFFSET -0.000000 20.861324 0.000000
            CHANNELS 3 Zrotation Xrotation Yrotation
            JOINT Neck
            {
                OFFSET -0.000000 20.775652 1.888696
                CHANNELS 3 Zrotation Xrotation Yrotation
                JOINT Head
                {
                    OFFSET -0.000000 12.758449 -1.822636
                    CHANNELS 3 Zrotation Xrotation Yrotation
                    End Site
                    {
                        OFFSET -0.000000 22.782944 0.000000
                    }
                }
            }
            JOINT LeftShoulder
            {
                OFFSET 3.666378 18.154961 -0.070414
                CHANNELS 3 Zrotation Xrotation Yrotation
                JOINT LeftArm
                {
                    OFFSET 12.961472 0.000000 0.000000
                    CHANNELS 3 Zrotation Xrotation Yrotation
                    JOINT LeftForeArm
                    {
                        OFFSET 24.623642 0.000000 0.000000
                        CHANNELS 3 Zrotation Xrotation Yrotation
                        JOINT LeftHand
                        {
                            OFFSET 23.136553 0.000000 0.000000
                            CHANNELS 3 Zrotation Xrotation Yrotation
                            End Site
                            {
                                OFFSET 13.669766 0.000000 0.000000
                            }
                        }
                    }
                }
            }
            JOINT RightShoulder
            {
                OFFSET -3.623027 18.154961 -0.070414
                CHANNELS 3 Zrotation Xrotation Yrotation
                JOINT RightArm
                {
                    OFFSET -12.961472 0.000000 0.000000
                    CHANNELS 3 Zrotation Xrotation Yrotation
                    JOINT RightForeArm
                    {
                        OFFSET -24.623642 0.000000 0.000000
                        CHANNELS 3 Zrotation Xrotation Yrotation
                        JOINT RightHand
                        {
                            OFFSET -23.136553 0.000000 0.000000
                            CHANNELS 3 Zrotation Xrotation Yrotation
                            End Site
                            {
                                OFFSET -13.669766 0.000000 0.000000
                            }
                        }
                    }
                }
            }
        }
    }
    JOINT LeftUpLeg
    {
        OFFSET 9.113177 0.000000 0.000000
        CHANNELS 3 Zrotation Xrotation Yrotation
        JOINT LeftLeg
        {
            OFFSET -0.000000 -45.736031 0.000000
            CHANNELS 3 Zrotation Xrotation Yrotation
            JOINT LeftFoot
            {
                OFFSET -0.000000 -34.703285 0.000000
                CHANNELS 3 Zrotation Xrotation Yrotation
                JOINT LeftToeBase
                {
                    OFFSET -0.000000 -5.923565 13.669766
                    CHANNELS 3 Zrotation Xrotation Yrotation
                    End Site
                    {
                        OFFSET -0.000000 0.000000 3.645271
                    }
                }
            }
        }
    }
    JOINT RightUpLeg
    {
        OFFSET -9.113177 0.000000 0.000000
        CHANNELS 3 Zrotation Xrotation Yrotation
        JOINT RightLeg
        {
            OFFSET -0.000000 -45.736031 0.000000
            CHANNELS 3 Zrotation Xrotation Yrotation
            JOINT RightFoot
            {
                OFFSET -0.000000 -34.703285 0.000000
                CHANNELS 3 Zrotation Xrotation Yrotation
                JOINT RightToeBase
                {
                    OFFSET -0.000000 -5.923565 13.669766
                    CHANNELS 3 Zrotation Xrotation Yrotation
                    End Site
                    {
                        OFFSET -0.000000 0.000000 3.645271
                    }
                }
            }
        }
    }
}
MOTION
Frames:    6
Frame Time:    0.008333
-5.033873    87.526199    13.150308    0.591490    2.225100    91.448555    0.000000    0.000000    -0.000000    0.000000    0.000000    0.000000    0.000000    0.000000    0.000000    0.000000    0.000000    -0.000000    -11.304459    -14.830935    52.715359    -71.219582    -12.532425    -104.793968    0.000000    0.000000    -0.000000    0.000000    0.000000    0.000000    -13.854862    -0.097858    -6.239201    6.900887    3.268052    1.316669    0.000000    0.000000    0.000000    0.000000    0.000000    -0.000000    1.641479    6.994424    1.783442    -5.549723    -4.241068    -2.586639    3.587204    -0.437443    3.177574    0.000000    0.000000    0.000000    -5.877177    8.664662    0.347189    6.432119    -4.877582    2.213211    0.294070    -1.801304    -7.579758    0.000000    0.000000    0.000000    
-5.030354    87.525658    13.150488    0.589672    2.224751    91.441345    0.257198    -0.052911    -1.267851    -0.216782    -0.498905    -1.268966    -1.948835    12.923749    -5.021589    2.918829    0.313095    -4.757727    17.572130    2.685122    0.494102    -17.463928    11.513778    -2.666823    8.391509    -3.253577    -8.610999    -6.678861    -2.534611    -1.490768    -13.275826    -0.009343    -2.908681    6.275611    2.932813    1.103904    -5.395723    -2.750710    5.929314    12.085298    -2.511531    -0.379772    1.638958    6.995376    1.797230    -5.544553    -4.239188    -2.596907    3.581347    -0.440442    3.183476    0.000000    0.000000    0.000000    -5.876446    8.663924    0.353155    6.427107    -4.876907    2.220534    0.290030    -1.804964    -7.579933    0.000000    0.000000    0.000000    
-5.027249    87.525230    13.150167    0.586071    2.223159    91.433670    0.258266    -0.044151    -1.269648    -0.217477    -0.517814    -1.270769    -1.946652    12.921668    -5.016777    2.915411    0.314987    -4.753270    17.576080    2.700768    0.507369    -17.467617    11.531677    -2.681525    8.382793    -3.282269    -8.615375    -6.662464    -2.564487    -1.480587    -13.279908    -0.011923    -2.914150    6.280552    2.931209    1.109282    -5.400920    -2.745811    5.932554    12.070726    -2.506704    -0.385015    1.643718    6.995630    1.786583    -5.554901    -4.249899    -2.507051    3.578759    -0.438122    3.115118    0.000000    0.000000    0.000000    -5.886009    8.671387    0.375457    6.449972    -4.899786    2.229896    0.288664    -1.792041    -7.608808    0.000000    0.000000    0.000000    
-5.023688    87.524704    13.150218    0.582204    2.221039    91.422943    0.258629    -0.041896    -1.265494    -0.211233    -0.524123    -1.266595    -1.947644    12.917393    -5.015220    2.906509    0.305548    -4.752551    17.571938    2.687980    0.497467    -17.480581    11.526197    -2.669393    8.382317    -3.285936    -8.622279    -6.660022    -2.568394    -1.469055    -13.296217    -0.026118    -2.922465    6.290122    2.969495    1.103972    -5.404827    -2.747021    5.936910    12.060578    -2.507934    -0.389380    1.644442    6.994929    1.794078    -5.555281    -4.246930    -2.523276    3.584473    -0.443176    3.131593    0.000000    0.000000    0.000000    -5.877293    8.659681    0.368377    6.431861    -4.881622    2.229172    0.287114    -1.800525    -7.589932    0.000000    0.000000    0.000000    
-5.020682    87.524902    13.149060    0.581142    2.220082    91.420410    0.263700    -0.032496    -1.267862    -0.216608    -0.534981    -1.268968    -1.941648    12.908548    -5.014437    2.893805    0.308281    -4.753604    17.573414    2.679941    0.496350    -17.488213    11.537455    -2.658073    8.381623    -3.297884    -8.640271    -6.669707    -2.580143    -1.448462    -13.303180    -0.026636    -2.934404    6.292624    2.993699    1.113357    -5.405480    -2.737253    5.933177    12.059506    -2.499333    -0.399156    1.643970    6.996304    1.789402    -5.552903    -4.240690    -2.579600    3.591827    -0.448150    3.195215    0.000000    0.000000    0.000000    -5.886279    8.670430    0.382699    6.452744    -4.908261    2.202571    0.292087    -1.777823    -7.580473    0.000000    0.000000    0.000000    
-5.015423    87.524139    13.152240    0.574776    2.218142    91.426079    0.257566    -0.041547    -1.272154    -0.209345    -0.530528    -1.273246    -1.938068    12.903728    -5.015837    2.886080    0.305610    -4.756104    17.573088    2.685972    0.502682    -17.488348    11.539181    -2.676728    8.381061    -3.294035    -8.638442    -6.694833    -2.576670    -1.439477    -13.311441    -0.018853    -2.953014    6.299314    2.963442    1.138418    -5.413139    -2.694870    5.912339    12.077169    -2.458165    -0.404653    1.651967    6.991718    1.785521    -5.558440    -4.230101    -2.642537    3.586837    -0.465747    3.261531    0.000000    0.000000    0.000000    -5.878054    8.668807    0.380186    6.444827    -4.905383    2.226286    0.296000    -1.790847    -7.605499    0.000000    0.000000    0.000000    
